<svg xmlns="http://www.w3.org/2000/svg" version="1.1" xmlns:xlink="http://www.w3.org/1999/xlink" xmlns:svgjs="http://svgjs.dev/svgjs" width="1440" height="560" preserveAspectRatio="none" viewBox="0 0 1440 560"><g mask="url(&quot;#SvgjsMask1009&quot;)" fill="none"><rect width="1440" height="560" x="0" y="0" fill="#0e2a47"></rect><path d="M1358.279,522.778C1380.127,523.239,1396.021,504.785,1407.128,485.965C1418.477,466.733,1427.537,443.56,1416.476,424.161C1405.344,404.639,1380.734,399.391,1358.279,400.294C1337.587,401.126,1317.538,410.336,1307.661,428.538C1298.173,446.024,1303.458,466.452,1312.871,483.978C1322.968,502.776,1336.946,522.328,1358.279,522.778" fill="rgba(28, 83, 142, 0.4)" class="triangle-float2"></path><path d="M99.78425843534588 71.3579133380386L161.42560659429415 95.01980996735531 166.0977774587951-9.273160585725456z" fill="rgba(28, 83, 142, 0.4)" class="triangle-float2"></path><path d="M1101.3772679534047 52.104972756539034L1063.0411916333655 177.4966283703469 1188.4328472471734 215.83270469038604 1226.7689235672126 90.44104907657817z" fill="rgba(28, 83, 142, 0.4)" class="triangle-float2"></path><path d="M1224.8364070275754 346.4501412646147L1208.3876110615856 431.07186060932355 1293.0093304062946 447.5206565753133 1309.4581263722844 362.8989372306044z" fill="rgba(28, 83, 142, 0.4)" class="triangle-float3"></path><path d="M272.246,325.748C292.875,326.728,311.493,313.641,321.581,295.621C331.437,278.014,331.137,256.432,320.725,239.148C310.633,222.395,291.788,212.933,272.246,213.721C253.966,214.458,238.783,226.701,230.098,242.803C221.874,258.051,222.562,275.848,230.41,291.292C239.182,308.554,252.905,324.83,272.246,325.748" fill="rgba(28, 83, 142, 0.4)" class="triangle-float2"></path><path d="M436.8599865978772 384.355969041187L430.26499067936237 510.19598761737797 562.7000051740682 390.9509649597018z" fill="rgba(28, 83, 142, 0.4)" class="triangle-float3"></path><path d="M9.098,464.507C41.549,464.243,70.558,444.811,86.097,416.321C100.997,389.003,98.153,356.379,82.853,329.283C67.266,301.681,40.796,280.152,9.098,279.962C-22.887,279.77,-50.252,300.666,-66.206,328.389C-82.117,356.038,-85.547,389.68,-70.105,417.593C-54.184,446.371,-23.789,464.775,9.098,464.507" fill="rgba(28, 83, 142, 0.4)" class="triangle-float1"></path><path d="M608.7937765311545 103.93092679250711L475.87322088263124 142.04528279721802 646.9081325358654 236.85148244103044z" fill="rgba(28, 83, 142, 0.4)" class="triangle-float2"></path><path d="M282.63,543.282C307.196,542.189,326.608,523.985,337.755,502.067C347.835,482.247,347.241,458.584,335.216,439.88C324.083,422.565,303.208,416.865,282.63,416.328C260.784,415.757,237.671,419.155,225.061,437.003C210.485,457.633,206.265,485.172,218.296,507.383C230.832,530.526,256.336,544.452,282.63,543.282" fill="rgba(28, 83, 142, 0.4)" class="triangle-float1"></path><path d="M843.877,595.325C895.959,595.215,950.743,580.828,976.961,535.826C1003.317,490.586,993.143,433.088,963.561,389.889C937.5,351.833,889.957,339.469,843.877,341.482C801.71,343.324,764.946,364.834,741.027,399.609C712.621,440.907,686.496,492.02,709.813,536.391C734.151,582.705,791.557,595.436,843.877,595.325" fill="rgba(28, 83, 142, 0.4)" class="triangle-float2"></path><path d="M964.3318233218693 230.11425716420672L1039.1109610168887 114.96448300337985 923.9611868560619 40.185345308360354 849.1820491610424 155.33511946918725z" fill="rgba(28, 83, 142, 0.4)" class="triangle-float3"></path><path d="M1200.736096635369 68.1097378703347L1125.2678822804899 120.95315045684725 1178.1112948670025 196.4213648117263 1253.5795092218816 143.57795222521375z" fill="rgba(28, 83, 142, 0.4)" class="triangle-float3"></path><path d="M710.775,371.024C734.568,371.993,758.435,359.848,768.941,338.478C778.577,318.876,768.294,296.855,756.166,278.689C745.655,262.945,729.685,252.22,710.775,251.355C690.115,250.41,668.356,256.531,657.577,274.182C646.418,292.455,649.967,315.285,660.276,334.051C671.042,353.649,688.434,370.114,710.775,371.024" fill="rgba(28, 83, 142, 0.4)" class="triangle-float1"></path><path d="M431.835,404.276C452.078,404.853,466.353,386.813,476.373,369.215C486.257,351.855,492.535,331.497,483.382,313.74C473.542,294.651,453.269,281.481,431.835,282.816C412.074,284.047,398.904,301.692,390.33,319.538C383.016,334.761,384.056,351.63,391.485,366.797C400.14,384.466,412.168,403.716,431.835,404.276" fill="rgba(28, 83, 142, 0.4)" class="triangle-float2"></path><path d="M1310.4410117260156-11.555675935768475L1332.4625482427662 113.33466375172573 1457.3528879302603 91.31312723497518 1435.3313514135098-33.57721245251902z" fill="rgba(28, 83, 142, 0.4)" class="triangle-float2"></path></g><defs><mask id="SvgjsMask1009"><rect width="1440" height="560" fill="#ffffff"></rect></mask><style>
                @keyframes float1 {
                    0%{transform: translate(0, 0)}
                    50%{transform: translate(-10px, 0)}
                    100%{transform: translate(0, 0)}
                }

                .triangle-float1 {
                    animation: float1 5s infinite;
                }

                @keyframes float2 {
                    0%{transform: translate(0, 0)}
                    50%{transform: translate(-5px, -5px)}
                    100%{transform: translate(0, 0)}
                }

                .triangle-float2 {
                    animation: float2 4s infinite;
                }

                @keyframes float3 {
                    0%{transform: translate(0, 0)}
                    50%{transform: translate(0, -10px)}
                    100%{transform: translate(0, 0)}
                }

                .triangle-float3 {
                    animation: float3 6s infinite;
                }
            </style></defs></svg>